<svg width="18" height="18" viewBox="0 0 18 18" fill="none" xmlns="http://www.w3.org/2000/svg">
<path d="M15.7502 5.04736C15.7352 5.04736 15.7127 5.04736 15.6902 5.04736C11.7227 4.64986 7.76274 4.49986 3.84024 4.89736L2.31024 5.04736C1.99524 5.07736 1.71774 4.85236 1.68774 4.53736C1.65774 4.22236 1.88274 3.95236 2.19024 3.92236L3.72024 3.77236C7.71024 3.36736 11.7527 3.52486 15.8027 3.92236C16.1102 3.95236 16.3352 4.22986 16.3052 4.53736C16.2827 4.82986 16.0352 5.04736 15.7502 5.04736Z" fill="#FF8E26"/>
<path d="M6.37458 4.29C6.34458 4.29 6.31458 4.29 6.27708 4.2825C5.97708 4.23 5.76708 3.9375 5.81958 3.6375L5.98458 2.655C6.10458 1.935 6.26958 0.9375 8.01708 0.9375H9.98208C11.7371 0.9375 11.9021 1.9725 12.0146 2.6625L12.1796 3.6375C12.2321 3.945 12.0221 4.2375 11.7221 4.2825C11.4146 4.335 11.1221 4.125 11.0771 3.825L10.9121 2.85C10.8071 2.1975 10.7846 2.07 9.98958 2.07H8.02458C7.22958 2.07 7.21458 2.175 7.10208 2.8425L6.92958 3.8175C6.88458 4.095 6.64458 4.29 6.37458 4.29Z" fill="#FF8E26"/>
<path d="M11.4073 17.0627H6.5923C3.9748 17.0627 3.8698 15.6152 3.7873 14.4452L3.2998 6.89268C3.2773 6.58518 3.5173 6.31518 3.8248 6.29268C4.1398 6.27768 4.4023 6.51018 4.4248 6.81768L4.9123 14.3702C4.9948 15.5102 5.0248 15.9377 6.5923 15.9377H11.4073C12.9823 15.9377 13.0123 15.5102 13.0873 14.3702L13.5748 6.81768C13.5973 6.51018 13.8673 6.27768 14.1748 6.29268C14.4823 6.31518 14.7223 6.57768 14.6998 6.89268L14.2123 14.4452C14.1298 15.6152 14.0248 17.0627 11.4073 17.0627Z" fill="#FF8E26"/>
</svg>
