<svg width="24" height="24" viewBox="0 0 24 24" fill="none" xmlns="http://www.w3.org/2000/svg">
<path d="M11.94 2.21008L9.52995 7.82008H7.11995C6.71995 7.82008 6.32995 7.85007 5.94995 7.93007L6.94995 5.53008L6.98995 5.44008L7.04995 5.28008C7.07995 5.21008 7.09995 5.15007 7.12995 5.10008C8.28995 2.41007 9.58995 1.57008 11.94 2.21008Z" fill="#3371EB"/>
<path d="M18.73 8.09002L18.71 8.08002C18.11 7.91002 17.5 7.82002 16.88 7.82002H10.62L12.87 2.59002L12.9 2.52002C13.04 2.57002 13.19 2.64002 13.34 2.69002L15.55 3.62002C16.78 4.13002 17.64 4.66002 18.17 5.30002C18.26 5.42002 18.34 5.53002 18.42 5.66002C18.51 5.80002 18.58 5.94002 18.62 6.09002C18.66 6.18002 18.69 6.26002 18.71 6.35002C18.86 6.86002 18.87 7.44002 18.73 8.09002Z" fill="#3371EB"/>
<path d="M12.52 17.6601H12.77C13.07 17.6601 13.32 17.3901 13.32 17.0601C13.32 16.6401 13.2 16.5801 12.94 16.4801L12.52 16.3301V17.6601Z" fill="#3371EB"/>
<path d="M18.29 9.52007C17.84 9.39007 17.37 9.32007 16.88 9.32007H7.11999C6.43999 9.32007 5.79999 9.45007 5.19999 9.71007C3.45999 10.4601 2.23999 12.1901 2.23999 14.2001V16.1501C2.23999 16.3901 2.25999 16.6201 2.28999 16.8601C2.50999 20.0401 4.20999 21.7401 7.38999 21.9501C7.61999 21.9801 7.84999 22.0001 8.09999 22.0001H15.9C19.6 22.0001 21.55 20.2401 21.74 16.7401C21.75 16.5501 21.76 16.3501 21.76 16.1501V14.2001C21.76 11.9901 20.29 10.1301 18.29 9.52007ZM13.28 15.5001C13.74 15.6601 14.36 16.0001 14.36 17.0601C14.36 17.9701 13.65 18.7001 12.77 18.7001H12.52V18.9201C12.52 19.2101 12.29 19.4401 12 19.4401C11.71 19.4401 11.48 19.2101 11.48 18.9201V18.7001H11.39C10.43 18.7001 9.63999 17.8901 9.63999 16.8901C9.63999 16.6001 9.86999 16.3701 10.16 16.3701C10.45 16.3701 10.68 16.6001 10.68 16.8901C10.68 17.3101 11 17.6601 11.39 17.6601H11.48V15.9701L10.72 15.7001C10.26 15.5401 9.63999 15.2001 9.63999 14.1401C9.63999 13.2301 10.35 12.5001 11.23 12.5001H11.48V12.2801C11.48 11.9901 11.71 11.7601 12 11.7601C12.29 11.7601 12.52 11.9901 12.52 12.2801V12.5001H12.61C13.57 12.5001 14.36 13.3101 14.36 14.3101C14.36 14.6001 14.13 14.8301 13.84 14.8301C13.55 14.8301 13.32 14.6001 13.32 14.3101C13.32 13.8901 13 13.5401 12.61 13.5401H12.52V15.2301L13.28 15.5001Z" fill="#3371EB"/>
<path d="M10.6801 14.14C10.6801 14.56 10.8001 14.62 11.0601 14.72L11.4801 14.87V13.54H11.2301C10.9201 13.54 10.6801 13.81 10.6801 14.14Z" fill="#3371EB"/>
</svg>
